<svg width="800" height="600" viewBox="0 0 800 600" fill="none" xmlns="http://www.w3.org/2000/svg">
  <!-- Background Elements -->
  <circle cx="150" cy="150" r="100" fill="#60A5FA" fill-opacity="0.1"/>
  <circle cx="650" cy="450" r="120" fill="#60A5FA" fill-opacity="0.1"/>
  
  <!-- Main Monitor -->
  <rect x="200" y="100" width="400" height="300" rx="20" fill="#FFFFFF" stroke="#1E3A8A" stroke-width="3"/>
  <rect x="220" y="120" width="360" height="240" rx="10" fill="#F8FAFC"/>
  
  <!-- Monitor Stand -->
  <path d="M350 400 L450 400 L400 500 Z" fill="#1E3A8A"/>
  <rect x="380" y="380" width="40" height="20" fill="#1E3A8A"/>
  
  <!-- Screen Content -->
  <!-- Status Bar -->
  <rect x="240" y="140" width="320" height="40" rx="5" fill="#E2E8F0"/>
  <circle cx="260" cy="160" r="8" fill="#EF4444"/>
  <circle cx="290" cy="160" r="8" fill="#FCD34D"/>
  <circle cx="320" cy="160" r="8" fill="#22C55E"/>
  
  <!-- Window Content -->
  <rect x="240" y="200" width="150" height="20" rx="3" fill="#E2E8F0"/>
  <rect x="240" y="240" width="200" height="10" rx="2" fill="#E2E8F0"/>
  <rect x="240" y="260" width="180" height="10" rx="2" fill="#E2E8F0"/>
  <rect x="240" y="280" width="160" height="10" rx="2" fill="#E2E8F0"/>
  
  <!-- Support Icons -->
  <circle cx="520" cy="240" r="40" fill="#3B82F6" fill-opacity="0.2"/>
  <path d="M500 240 L540 240 M520 220 L520 260" stroke="#1E3A8A" stroke-width="4"/>
  
  <!-- Floating Elements -->
  <circle cx="180" cy="80" r="15" fill="#3B82F6" fill-opacity="0.3"/>
  <circle cx="620" cy="320" r="25" fill="#3B82F6" fill-opacity="0.3"/>
  <circle cx="150" cy="500" r="20" fill="#3B82F6" fill-opacity="0.3"/>
  
  <!-- Connection Lines -->
  <path d="M180 80 Q 220 100, 240 140" stroke="#3B82F6" stroke-width="2" stroke-dasharray="4 4"/>
  <path d="M620 320 Q 580 300, 560 280" stroke="#3B82F6" stroke-width="2" stroke-dasharray="4 4"/>
  
  <!-- Support Text -->
  <text x="400" y="550" text-anchor="middle" fill="#1E3A8A" font-family="Arial" font-size="24" font-weight="bold">
    Professional IT Solutions
  </text>
</svg>
